<?xml version="1.0" standalone="no"?><!DOCTYPE svg PUBLIC "-//W3C//DTD SVG 1.1//EN" "http://www.w3.org/Graphics/SVG/1.1/DTD/svg11.dtd"><svg t="1628861126926" class="icon" viewBox="0 0 1024 1024" version="1.1" xmlns="http://www.w3.org/2000/svg" p-id="1513" xmlns:xlink="http://www.w3.org/1999/xlink" width="200" height="200"><defs><style type="text/css"></style></defs><path d="M192 480.0512h-128c-17.7152 0-31.9488 14.336-31.9488 31.9488v448c0 17.7152 14.336 31.9488 31.9488 31.9488h128c17.7152 0 31.9488-14.336 31.9488-31.9488V512c0.1024-17.7152-14.2336-31.9488-31.9488-31.9488z m384-448.1024h-128c-17.7152 0-31.9488 14.336-31.9488 31.9488v896c0 17.7152 14.336 31.9488 31.9488 31.9488h128c17.7152 0 31.9488-14.336 31.9488-31.9488v-896c0.1024-17.6128-14.2336-31.9488-31.9488-31.9488z m384 192.1024h-128c-17.7152 0-31.9488 14.336-31.9488 31.9488v704c0 17.7152 14.336 31.9488 31.9488 31.9488h128c17.7152 0 31.9488-14.336 31.9488-31.9488V256c0.1024-17.7152-14.2336-31.9488-31.9488-31.9488z" fill="#F0EEE2" p-id="1514"></path><path d="M64 608.0512h128V512h-128v96.0512z m384-448.1024h128V64h-128v95.9488z m384 96.0512v96.0512h128V256h-128z" fill="#BBAA9C" p-id="1515"></path><path d="M543.9488 640h-48.0256c-8.8064 0.2048-15.7696 7.5776-15.5648 16.384 0.2048 8.4992 7.0656 15.36 15.5648 15.5648h48.0256c8.8064-0.2048 15.7696-7.5776 15.5648-16.384-0.1024-8.4992-6.9632-15.36-15.5648-15.5648z m368.0256 176.0256h-48.0256c-8.8064 0-15.9744 7.168-15.9744 15.9744s7.168 15.9744 15.9744 15.9744h48.0256c8.8064 0 15.9744-7.168 15.9744-15.9744s-7.0656-15.9744-15.9744-15.9744zM432.0256 143.9744h96.0512c8.8064-0.2048 15.7696-7.5776 15.5648-16.384-0.2048-8.4992-7.0656-15.36-15.5648-15.5648h-96.0512c-8.8064 0.2048-15.7696 7.5776-15.5648 16.384 0.2048 8.4992 6.9632 15.36 15.5648 15.5648zM512 896h-96.0512c-8.8064 0-15.9744 7.168-15.9744 15.9744s7.168 15.9744 15.9744 15.9744H512c8.8064 0 15.9744-7.168 15.9744-15.9744s-7.168-15.9744-15.9744-15.9744z m352.0512-224.0512c0-8.8064-7.168-15.9744-15.9744-15.9744h-32.0512c-8.8064-0.2048-16.1792 6.7584-16.384 15.5648s6.7584 16.1792 15.5648 16.384h32.768c8.8064 0.1024 15.9744-7.0656 16.0768-15.9744z m-720.0768-95.9488c8.8064 0 15.9744-7.168 15.9744-15.9744s-7.168-15.9744-15.9744-15.9744-15.9744 7.168-15.9744 15.9744 7.168 15.9744 15.9744 15.9744z m832-128H896c-8.8064 0-15.9744 7.168-15.9744 15.9744s7.168 15.9744 15.9744 15.9744h79.9744c8.8064 0 15.9744-7.168 15.9744-15.9744s-7.168-15.9744-15.9744-15.9744z m-768 399.9744H128c-8.8064 0-15.9744 7.168-15.9744 15.9744s7.168 15.9744 15.9744 15.9744h79.9744c8.8064 0 15.9744-7.168 15.9744-15.9744s-7.168-15.9744-15.9744-15.9744z m-64-128c0-8.8064-7.168-15.9744-15.9744-15.9744H96.0512c-8.8064 0.2048-15.7696 7.5776-15.5648 16.384 0.2048 8.4992 7.0656 15.36 15.5648 15.5648H128c8.8064 0.1024 15.9744-7.0656 15.9744-15.9744zM896 320h31.9488c8.8064-0.2048 15.7696-7.5776 15.5648-16.384-0.2048-8.4992-7.0656-15.36-15.5648-15.5648H896c-8.8064-0.2048-16.1792 6.7584-16.384 15.5648s6.7584 16.1792 15.5648 16.384h0.8192z m-287.9488 79.9744H496.0256c-8.8064 0-15.9744 7.168-15.9744 15.9744s7.168 15.9744 15.9744 15.9744h112.0256c8.8064 0 15.9744-7.168 15.9744-15.9744s-7.168-15.9744-15.9744-15.9744z" fill="#D8D5BA" p-id="1516"></path><path d="M960 192h-128c-35.328 0-64 28.672-64 64v704c0 35.328 28.672 64 64 64h128c35.328 0 64-28.672 64-64V256c0-35.328-28.672-64-64-64z m0 160.0512h-128V384h128v576h-128V256h128v96.0512zM576 0h-128C412.672 0 384 28.672 384 64v896c0 35.328 28.672 64 64 64h128c35.328 0 64-28.672 64-64v-896C640 28.672 611.328 0 576 0z m0 960h-128v-768h128v-31.9488h-128V64h128v896z m-384-512h-128C28.672 448 0 476.672 0 512v448C0 995.328 28.672 1024 64 1024h128c35.328 0 64-28.672 64-64V512c0-35.328-28.672-64-64-64z m0 512h-128V640h128v320z m0-351.9488h-128V512h128v96.0512z" fill="#5F4E56" p-id="1517"></path></svg>